<?xml version="1.0" standalone="no"?>
<!DOCTYPE svg PUBLIC "-//W3C//DTD SVG 20010904//EN"
 "http://www.w3.org/TR/2001/REC-SVG-20010904/DTD/svg10.dtd">
<svg version="1.0" xmlns="http://www.w3.org/2000/svg"
 width="676.000000pt" height="363.000000pt" viewBox="0 0 676.000000 363.000000"
 preserveAspectRatio="xMidYMid meet">

<g transform="translate(0.000000,363.000000) scale(0.100000,-0.100000)"
fill="#000000" stroke="none">
<path d="M3495 3540 c-144 -21 -189 -32 -324 -76 -472 -156 -818 -498 -1100
-1085 -86 -181 -121 -259 -121 -273 0 -6 -4 -16 -8 -21 -5 -6 -28 -57 -52
-115 -23 -58 -53 -130 -66 -160 -12 -30 -48 -118 -78 -195 -31 -77 -63 -153
-71 -170 -19 -41 -94 -213 -108 -250 -7 -16 -16 -33 -22 -37 -5 -4 -6 -8 -2
-8 5 0 -1 -13 -12 -29 -12 -16 -21 -32 -21 -35 0 -3 -22 -44 -50 -92 -27 -48
-50 -89 -50 -91 0 -12 -131 -199 -197 -280 -242 -300 -551 -484 -939 -558 -77
-14 -72 -15 186 -10 245 4 408 17 585 45 198 31 364 72 530 130 105 37 292
129 391 192 233 150 434 380 574 658 92 182 140 310 248 655 17 55 43 136 57
180 14 44 25 85 25 92 0 7 4 21 10 31 5 9 18 46 29 82 163 542 403 911 741
1138 144 97 353 192 530 242 41 12 86 25 100 29 45 13 -217 31 -445 30 -154
-1 -256 -6 -340 -19z"/>
<path d="M5220 3553 c-160 -11 -421 -64 -605 -123 -379 -122 -598 -243 -801
-445 -190 -189 -303 -364 -463 -717 -47 -105 -110 -284 -258 -726 -225 -680
-279 -811 -396 -968 -143 -191 -364 -346 -612 -429 -106 -35 -274 -73 -366
-82 -99 -9 -59 -21 77 -22 131 -1 492 16 614 30 410 45 660 107 909 225 288
136 481 321 606 579 63 131 177 464 326 955 200 662 288 893 427 1125 72 120
121 183 209 265 171 160 415 260 728 300 139 18 150 23 65 31 -76 6 -378 8
-460 2z"/>
<path d="M5370 3319 c-304 -30 -568 -304 -655 -679 -33 -139 -20 -399 25 -515
113 -295 316 -461 580 -473 270 -12 525 157 669 445 69 140 90 225 98 403 4
117 2 162 -12 235 -33 163 -98 294 -200 400 -137 142 -307 204 -505 184z
m-129 -453 c68 -29 124 -117 135 -214 12 -101 -45 -258 -124 -341 -61 -63
-117 -91 -182 -91 -60 0 -97 17 -135 62 -74 88 -79 250 -12 390 41 85 99 147
170 183 58 28 99 31 148 11z"/>
<path d="M4722 1598 c-40 -66 -92 -182 -107 -240 -10 -39 -15 -106 -15 -194 0
-171 -14 -204 -86 -204 -26 0 -104 64 -104 86 0 7 -4 16 -10 19 -18 11 -11
-11 18 -54 55 -82 146 -115 198 -73 47 38 59 79 54 197 -2 61 -4 155 -3 210 1
94 3 106 41 193 22 50 39 92 37 92 -2 0 -12 -15 -23 -32z"/>
<path d="M4371 1144 c0 -11 3 -14 6 -6 3 7 2 16 -1 19 -3 4 -6 -2 -5 -13z"/>
<path d="M4390 751 c-181 -39 -326 -268 -262 -414 26 -60 94 -132 157 -168 44
-25 60 -29 130 -29 147 0 222 36 337 160 113 123 168 160 271 181 l82 16 -45
12 c-25 7 -58 17 -75 24 -16 7 -59 12 -95 12 -80 0 -94 -9 -240 -150 -112
-109 -142 -129 -212 -144 -149 -34 -257 125 -187 275 25 53 63 84 137 113 72
29 122 28 151 -3 19 -20 22 -32 17 -60 -10 -53 -63 -114 -136 -158 -67 -41
-113 -78 -106 -86 3 -2 62 24 132 58 221 109 279 193 197 290 -47 56 -166 90
-253 71z"/>
<path d="M5930 601 l0 -41 41 0 40 0 -3 38 c-3 35 -5 37 -40 40 l-38 3 0 -40z"/>
<path d="M6490 494 c-83 -25 -127 -100 -117 -200 10 -99 72 -154 172 -154 93
0 153 47 175 138 19 80 -17 168 -84 204 -36 20 -101 25 -146 12z m123 -95 c50
-54 31 -162 -33 -189 -85 -35 -160 78 -113 170 34 66 95 74 146 19z"/>
<path d="M5118 333 c1 -92 5 -174 7 -180 2 -7 20 -13 38 -13 l34 0 5 126 c5
118 7 127 30 151 30 29 72 33 96 9 14 -13 18 -44 22 -149 l5 -132 38 -3 37 -3
0 151 0 152 -29 29 c-25 24 -38 29 -79 29 -34 0 -57 -6 -74 -19 -35 -28 -52
-30 -53 -6 0 16 -8 21 -40 23 l-40 3 3 -168z"/>
<path d="M5510 485 c0 -8 6 -29 14 -47 8 -18 21 -49 30 -70 9 -20 16 -42 16
-50 0 -8 4 -18 8 -23 5 -6 21 -43 36 -83 27 -70 29 -72 62 -72 40 0 37 -5 110
182 76 195 74 178 26 178 -39 0 -40 -1 -60 -52 -11 -29 -28 -78 -38 -108 -21
-64 -41 -92 -48 -69 -2 8 -16 46 -29 84 -14 39 -29 81 -32 95 -11 39 -25 50
-61 50 -23 0 -34 -5 -34 -15z"/>
<path d="M5930 320 l0 -181 38 3 37 3 0 175 0 175 -37 3 -38 3 0 -181z"/>
<path d="M6124 487 c-2 -7 -3 -87 -2 -177 l3 -165 35 0 35 0 5 122 c5 102 8
125 25 143 15 17 27 21 53 16 29 -4 34 -1 43 21 5 15 8 32 5 40 -9 21 -72 16
-95 -8 -20 -22 -41 -19 -41 7 0 18 -59 19 -66 1z"/>
</g>
</svg>
